<svg aria-hidden="true" xmlns="http://www.w3.org/2000/svg" overflow="hidden">version="1.1" xmlns="http://www.w3.org/2000/svg" xmlns:xlink="http://www.w3.org/1999/xlink">
<defs>
<symbol id="icon-facebook">
 <path d="M20,2H4C2.9,2,2,2.9,2,4v16c0,1.1,0.9,2,2,2h16c1.1,0,2-0.9,2-2V4C22,2.9,21.1,2,20,2z M18.4,7.4H17c-0.9,0-1,0.3-1,1l0,1.3 h2.1L18,12h-1.9v7h-3.2v-7h-1.2V9.6h1.2V8.1c0-2,0.8-3.1,3.1-3.1h2.4V7.4z"/>
</symbol>
<symbol id="icon-instagram">
<path d="M 8 3 C 5.239 3 3 5.239 3 8 L 3 16 C 3 18.761 5.239 21 8 21 L 16 21 C 18.761 21 21 18.761 21 16 L 21 8 C 21 5.239 18.761 3 16 3 L 8 3 z M 18 5 C 18.552 5 19 5.448 19 6 C 19 6.552 18.552 7 18 7 C 17.448 7 17 6.552 17 6 C 17 5.448 17.448 5 18 5 z M 12 7 C 14.761 7 17 9.239 17 12 C 17 14.761 14.761 17 12 17 C 9.239 17 7 14.761 7 12 C 7 9.239 9.239 7 12 7 z M 12 9 A 3 3 0 0 0 9 12 A 3 3 0 0 0 12 15 A 3 3 0 0 0 15 12 A 3 3 0 0 0 12 9 z"/>
</symbol>
<symbol id="icon-youtube">
<path d="M21.582,6.186c-0.23-0.86-0.908-1.538-1.768-1.768C18.254,4,12,4,12,4S5.746,4,4.186,4.418 c-0.86,0.23-1.538,0.908-1.768,1.768C2,7.746,2,12,2,12s0,4.254,0.418,5.814c0.23,0.86,0.908,1.538,1.768,1.768 C5.746,20,12,20,12,20s6.254,0,7.814-0.418c0.861-0.23,1.538-0.908,1.768-1.768C22,16.254,22,12,22,12S22,7.746,21.582,6.186z M10,14.598V9.402c0-0.385,0.417-0.625,0.75-0.433l4.5,2.598c0.333,0.192,0.333,0.674,0,0.866l-4.5,2.598 C10.417,15.224,10,14.983,10,14.598z"></path>
</symbol>
<symbol id="icon-twitter">
<path d="M20,2H4C2.9,2,2,2.9,2,4v16c0,1.1,0.9,2,2,2h16c1.1,0,2-0.9,2-2V4C22,2.9,21.1,2,20,2z M17.6,8.8c0,0.1,0,0.2,0,0.4 c0,3.8-2.9,8.2-8.2,8.2c-1.6,0-3.1-0.5-4.4-1.3c0.2,0,0.5,0,0.7,0c1.3,0,2.6-0.5,3.6-1.2c-1.3,0-2.3-0.9-2.7-2 c0.2,0,0.4,0.1,0.5,0.1c0.3,0,0.5,0,0.8-0.1c-1.3-0.3-2.3-1.4-2.3-2.8c0,0,0,0,0,0c0.4,0.2,0.8,0.3,1.3,0.4C6.1,9.8,5.6,9,5.6,8 c0-0.5,0.1-1,0.4-1.4c1.4,1.7,3.5,2.9,5.9,3c0-0.2-0.1-0.4-0.1-0.7c0-1.6,1.3-2.9,2.9-2.9c0.8,0,1.6,0.3,2.1,0.9 c0.7-0.1,1.3-0.4,1.8-0.7c-0.2,0.7-0.7,1.2-1.3,1.6c0.6-0.1,1.1-0.2,1.7-0.5C18.6,7.9,18.1,8.4,17.6,8.8z"/>
</symbol>
</defs>
</svg>
